name Walk_125 02
datacolumns 19
datarows 38
range 0.260000 0.278500
endheader
time	ground_force_vx	ground_force_vy	ground_force_vz	ground_force_px	ground_force_py	ground_force_pz	ground_force_vx	ground_force_vy	ground_force_vz	ground_force_px	ground_force_py	ground_force_pz	ground_torque_x	ground_torque_y	ground_torque_z	ground_torque_x	ground_torque_y	ground_torque_z
0.260000	0.056021	0.007711	0.292273	-0.021262	0.000000	-0.005049	110.192645	811.267385	22.952111	1.005053	0.000000	-0.546185	0.000000	0.000000	0.000000	0.000000	-4.982698	-0.000000	
0.260500	0.008167	-0.217067	0.356533	-0.029399	0.000000	-0.005291	110.430513	810.739078	23.607776	1.004402	0.000000	-0.546121	0.000000	0.000000	0.000000	0.000000	-4.871156	-0.000000	
0.261000	-0.045896	-0.464274	0.419218	-0.037764	0.000000	-0.005421	110.674896	810.197080	24.273042	1.003736	0.000000	-0.546056	0.000000	0.000000	0.000000	0.000000	-4.758621	-0.000000	
0.261500	-0.105447	-0.729817	0.478359	-0.046151	0.000000	-0.005419	110.925418	809.642257	24.944720	1.003059	0.000000	-0.545991	0.000000	0.000000	0.000000	0.000000	-4.645247	-0.000000	
0.262000	-0.169503	-1.008471	0.531808	-0.054321	0.000000	-0.005269	111.181743	809.075358	25.619643	1.002372	0.000000	-0.545926	0.000000	0.000000	0.000000	0.000000	-4.531191	-0.000000	
0.262500	-0.236807	-1.293842	0.577260	-0.062008	0.000000	-0.004953	111.443577	808.497002	26.294707	1.001677	0.000000	-0.545860	0.000000	0.000000	0.000000	0.000000	-4.416609	-0.000000	
0.263000	-0.305818	-1.578356	0.612289	-0.068920	0.000000	-0.004459	111.710672	807.907677	26.966898	1.000976	0.000000	-0.545795	0.000000	0.000000	0.000000	0.000000	-4.301662	-0.000000	
0.263500	-0.374709	-1.853267	0.634392	-0.074739	0.000000	-0.003776	111.982820	807.307736	27.633326	1.000269	0.000000	-0.545730	0.000000	0.000000	0.000000	0.000000	-4.186511	-0.000000	
0.264000	-0.441369	-2.108700	0.641040	-0.079129	0.000000	-0.002895	112.259852	806.697399	28.291245	0.999559	0.000000	-0.545667	0.000000	0.000000	0.000000	0.000000	-4.071316	-0.000000	
0.264500	-0.503410	-2.333709	0.629728	-0.081740	0.000000	-0.001812	112.541639	806.076758	28.938079	0.998847	0.000000	-0.545604	0.000000	0.000000	0.000000	0.000000	-3.956240	-0.000000	
0.265000	-0.558188	-2.516377	0.598039	-0.082212	0.000000	-0.000530	112.828080	805.445787	29.571437	0.998134	0.000000	-0.545543	0.000000	0.000000	0.000000	0.000000	-3.841443	-0.000000	
0.265500	-0.602823	-2.643934	0.543709	-0.080184	-0.000000	0.000945	113.119105	804.804346	30.189122	0.997421	0.000000	-0.545484	0.000000	0.000000	0.000000	0.000000	-3.727085	-0.000000	
0.266000	-0.634228	-2.702910	0.464694	-0.075301	-0.000000	0.002602	113.414665	804.152199	30.789145	0.996708	0.000000	-0.545426	0.000000	0.000000	0.000000	0.000000	-3.613325	-0.000000	
0.266500	-0.649150	-2.679313	0.359241	-0.067221	-0.000000	0.004423	113.714725	803.489020	31.369724	0.995996	0.000000	-0.545371	0.000000	0.000000	0.000000	0.000000	-3.500319	-0.000000	
0.267000	-0.644213	-2.558833	0.225958	-0.055623	-0.000000	0.006383	114.019264	802.814409	31.929292	0.995287	0.000000	-0.545317	0.000000	0.000000	0.000000	0.000000	-3.388222	-0.000000	
0.267500	-0.615965	-2.327067	0.063883	-0.040215	-0.000000	0.008450	114.328266	802.127909	32.466486	0.994579	0.000000	-0.545266	0.000000	0.000000	0.000000	0.000000	-3.277184	-0.000000	
0.268000	-0.560943	-1.969760	-0.127455	-0.020746	-0.000000	0.010586	114.641712	801.429013	32.980151	0.993874	0.000000	-0.545218	0.000000	0.000000	0.000000	0.000000	-3.167354	-0.000000	
0.268500	-0.475725	-1.473061	-0.347971	0.002991	-0.000000	0.012747	114.959582	800.717183	33.469324	0.993172	0.000000	-0.545171	0.000000	0.000000	0.000000	0.000000	-3.058875	-0.000000	
0.269000	-0.356999	-0.823782	-0.596977	0.031147	-0.000000	0.014882	115.281844	799.991857	33.933234	0.992473	0.000000	-0.545128	0.000000	0.000000	0.000000	0.000000	-2.951888	-0.000000	
0.269500	-0.201628	-0.009662	-0.873142	0.063811	-0.000000	0.016933	115.608454	799.252467	34.371282	0.991777	0.000000	-0.545087	0.000000	0.000000	0.000000	0.000000	-2.846527	-0.000000	
0.270000	-0.006717	0.980387	-1.174461	0.101008	-0.000000	0.018838	115.939353	798.498447	34.783034	0.991083	0.000000	-0.545049	0.000000	0.000000	0.000000	0.000000	-2.742923	-0.000000	
0.270500	0.230319	2.156041	-1.498245	0.142689	-0.000000	0.020531	116.274462	797.729241	35.168207	0.990393	0.000000	-0.545013	0.000000	0.000000	0.000000	0.000000	-2.641200	-0.000000	
0.271000	0.511699	3.525356	-1.841119	0.188731	-0.000000	0.021941	116.613682	796.944313	35.526654	0.989705	0.000000	-0.544980	0.000000	0.000000	0.000000	0.000000	-2.541477	-0.000000	
0.271500	0.839215	5.094591	-2.199048	0.238933	-0.000000	0.022995	116.956893	796.143154	35.858352	0.989020	0.000000	-0.544950	0.000000	0.000000	0.000000	0.000000	-2.443867	-0.000000	
0.272000	1.214185	6.868073	-2.567373	0.293022	-0.000000	0.023620	117.303952	795.325287	36.163387	0.988338	0.000000	-0.544922	0.000000	0.000000	0.000000	0.000000	-2.348476	-0.000000	
0.272500	1.637409	8.848109	-2.940868	0.350652	-0.000000	0.023742	117.654696	794.490270	36.441940	0.987659	0.000000	-0.544898	0.000000	0.000000	0.000000	0.000000	-2.255404	-0.000000	
0.273000	2.109147	11.034955	-3.313820	0.411407	-0.000000	0.023290	118.008938	793.637701	36.694276	0.986982	0.000000	-0.544875	0.000000	0.000000	0.000000	0.000000	-2.164744	-0.000000	
0.273500	2.629096	13.426837	-3.680123	0.474815	-0.000000	0.022198	118.366474	792.767218	36.920731	0.986307	0.000000	-0.544856	0.000000	0.000000	0.000000	0.000000	-2.076582	-0.000000	
0.274000	3.196387	16.020034	-4.033387	0.540352	-0.000000	0.020402	118.727079	791.878500	37.121701	0.985634	0.000000	-0.544839	0.000000	0.000000	0.000000	0.000000	-1.990997	-0.000000	
0.274500	3.809599	18.809021	-4.367064	0.607454	-0.000000	0.017849	119.090512	790.971263	37.297632	0.984964	0.000000	-0.544824	0.000000	0.000000	0.000000	0.000000	-1.908059	-0.000000	
0.275000	4.466773	21.786651	-4.674577	0.675531	-0.000000	0.014491	119.456518	790.045264	37.449007	0.984296	0.000000	-0.544812	0.000000	0.000000	0.000000	0.000000	-1.827832	-0.000000	
0.275500	5.165453	24.944386	-4.949455	0.743980	-0.000000	0.010292	119.824829	789.100293	37.576347	0.983629	0.000000	-0.544803	0.000000	0.000000	0.000000	0.000000	-1.750372	-0.000000	
0.276000	5.902726	28.272549	-5.185466	0.812195	-0.000000	0.005225	120.195170	788.136173	37.680193	0.982965	0.000000	-0.544795	0.000000	0.000000	0.000000	0.000000	-1.675727	-0.000000	
0.276500	6.675269	31.760597	-5.376739	0.879587	0.000000	-0.000723	120.567256	787.152755	37.761109	0.982303	0.000000	-0.544790	0.000000	0.000000	0.000000	0.000000	-1.603937	-0.000000	
0.277000	7.479410	35.397386	-5.517878	0.945589	0.000000	-0.007555	120.940798	786.149913	37.819672	0.981643	0.000000	-0.544787	0.000000	0.000000	0.000000	0.000000	-1.535036	-0.000000	
0.277500	8.311183	39.171436	-5.604056	1.009673	0.000000	-0.015260	121.315506	785.127542	37.856468	0.980985	0.000000	-0.544786	0.000000	0.000000	0.000000	0.000000	-1.469047	-0.000000	
0.278000	9.166387	43.071174	-5.631095	1.071354	0.000000	-0.023817	121.691091	784.085549	37.872093	0.980330	0.000000	-0.544788	0.000000	0.000000	0.000000	0.000000	-1.405988	-0.000000	
0.278500	10.040644	47.085163	-5.595525	1.130204	0.000000	-0.033191	122.067265	783.023854	37.867145	0.979676	0.000000	-0.544791	0.000000	0.000000	0.000000	0.000000	-1.345869	-0.000000	
